<svg width="25" height="25" xmlns="http://www.w3.org/2000/svg"><path d="m8.55 11.234-1.971 1.971a3.69 3.69 0 0 0 0 5.216 3.691 3.691 0 0 0 5.215 0l2.845-2.845a3.69 3.69 0 0 0-.69-5.757l-1.523 1.523c.29.07.565.216.791.442a1.678 1.678 0 0 1 0 2.371L10.373 17a1.678 1.678 0 0 1-2.371 0 1.678 1.678 0 0 1 0-2.371l.836-.836a4.507 4.507 0 0 1-.288-2.559z" style="fill:#3f6f3b"/><path d="m16.45 13.766 1.971-1.972a3.69 3.69 0 0 0 0-5.215 3.69 3.69 0 0 0-5.215 0l-2.845 2.845a3.69 3.69 0 0 0 .691 5.757l1.522-1.524c-.3-.07-.573-.223-.791-.441a1.678 1.678 0 0 1 0-2.371L14.628 8a1.678 1.678 0 0 1 2.371 0 1.678 1.678 0 0 1 0 2.371l-.836.836c.345.811.44 1.703.287 2.558v.001z" style="fill:#3f6f3b"/></svg>