<svg width="25" height="25" xmlns="http://www.w3.org/2000/svg"><path d="M25 12.5C25 19.404 19.404 25 12.5 25S0 19.404 0 12.5 5.596 0 12.5 0 25 5.596 25 12.5Zm-5.501-2.544c0-3.248-2.133-4.2-2.133-4.2-1.075-.493-2.922-.7-4.841-.716h-.047c-1.919.016-3.765.223-4.841.716 0 0-2.133.952-2.133 4.2 0 .744-.014 1.633.009 2.576.077 3.176.583 6.306 3.528 7.083 1.358.359 2.524.433 3.461.383 1.702-.095 2.658-.608 2.658-.608l-.056-1.23s-1.216.382-2.583.334c-1.352-.045-2.781-.145-3-1.802a3.266 3.266 0 0 1-.032-.465s1.33.325 3.013.401c1.029.048 1.996-.059 2.976-.177 1.881-.224 3.518-1.379 3.724-2.435.324-1.664.297-4.06.297-4.06Zm-2.516.251v3.933h-1.562v-3.817c0-.804-.339-1.213-1.017-1.213-.75 0-1.128.484-1.128 1.443v2.088h-1.552v-2.088c0-.959-.377-1.443-1.127-1.443-.68 0-1.018.409-1.018 1.213v3.817H8.016v-3.933c0-.803.206-1.442.617-1.914.425-.473.983-.715 1.673-.715.8 0 1.405.306 1.805.919l.389.652.389-.652c.401-.613 1.005-.919 1.805-.919.691 0 1.248.242 1.672.715.412.472.617 1.111.617 1.914Z" style="stroke-width:5px;fill:#6363ff"/></svg>