<svg width="25" height="25" xmlns="http://www.w3.org/2000/svg"><path d="M19.202 14.016c-.206 1.056-1.843 2.211-3.724 2.435-.98.118-1.947.225-2.976.177-1.683-.076-3.013-.401-3.013-.401-.001.156.01.311.032.465.219 1.657 1.648 1.757 3 1.802 1.367.048 2.583-.334 2.583-.334l.056 1.23s-.956.513-2.658.608c-.937.05-2.103-.024-3.461-.383-2.945-.777-3.451-3.907-3.528-7.083-.023-.943-.009-1.832-.009-2.576 0-3.248 2.133-4.2 2.133-4.2 1.076-.493 2.922-.7 4.841-.716h.047c1.919.016 3.766.223 4.841.716 0 0 2.133.952 2.133 4.2 0 0 .027 2.396-.297 4.06Zm-2.836-5.723c-.424-.473-.981-.715-1.672-.715-.8 0-1.404.306-1.805.919l-.389.652-.389-.652c-.4-.613-1.005-.919-1.805-.919-.69 0-1.248.242-1.673.715-.411.472-.617 1.111-.617 1.914v3.933h1.563v-3.817c0-.804.338-1.213 1.018-1.213.75 0 1.127.484 1.127 1.443v2.088h1.552v-2.088c0-.959.378-1.443 1.128-1.443.678 0 1.017.409 1.017 1.213v3.817h1.562v-3.933c0-.803-.205-1.442-.617-1.914Z" style="stroke-width:5px;fill:#6363ff"/></svg>