<svg width="25" height="25" xmlns="http://www.w3.org/2000/svg"><path d="M25 12.5C25 19.404 19.404 25 12.5 25S0 19.404 0 12.5 5.596 0 12.5 0 25 5.596 25 12.5zm-12.691-2.268h4.281v2.811h-2.346a.322.322 0 0 0-.287.17.303.303 0 0 0 .021.327l3.465 4.85a.33.33 0 0 0 .534 0l3.464-4.849a.313.313 0 0 0 .022-.328.33.33 0 0 0-.288-.17h-2.347V9.114c0-.618-.501-1.119-1.119-1.119l-5.4-.001a1.119 1.119 0 0 0 0 2.238zm.382 5.684H8.41v-2.932h2.346a.324.324 0 0 0 .287-.17.305.305 0 0 0-.021-.328L7.557 7.637a.327.327 0 0 0-.533 0l-3.465 4.849a.307.307 0 0 0-.022.328.33.33 0 0 0 .288.17h2.347v4.05c0 .618.501 1.119 1.118 1.119h5.401a1.119 1.119 0 0 0 0-2.237z" style="fill:#3f6f3b"/></svg>