<?xml version="1.0" encoding="utf-8"?>
<svg width="25" height="25" viewBox="0 0 25 25" xmlns="http://www.w3.org/2000/svg">
  <g transform="matrix(0.212283, 0, 0, 0.212283, 1.948466, 2.236084)">
    <path d="m50.605 64.441h-20.168v-13.812h11.051c0.57031 0 1.0938-0.30859 1.3555-0.80078 0.27344-0.5 0.23047-1.0898-0.10156-1.543l-16.324-22.844c-0.28125-0.40234-0.75391-0.64453-1.25-0.64453-0.50391 0-0.96875 0.23828-1.2578 0.64453l-16.324 22.844c-0.18359 0.25391-0.27734 0.55078-0.27734 0.84766 0 0.23828 0.058594 0.47656 0.17578 0.69531 0.26562 0.49219 0.78906 0.80078 1.3555 0.80078h11.055v19.078c0 2.9141 2.3594 5.2734 5.2695 5.2734h25.441c2.9102 0 5.2695-2.3594 5.2695-5.2734 0-2.9062-2.3555-5.2656-5.2695-5.2656z" style="fill: rgb(63, 111, 59);"/>
    <path d="m48.805 37.668h20.168v13.238h-11.051c-0.57031 0-1.0938 0.30859-1.3555 0.80078-0.27344 0.5-0.23047 1.0859 0.10156 1.543l16.324 22.844c0.28125 0.39844 0.75391 0.64062 1.25 0.64062 0.50391 0 0.97266-0.23828 1.2617-0.64062l16.32-22.84c0.18359-0.25781 0.27734-0.55469 0.27734-0.85156 0-0.23438-0.058593-0.47266-0.17578-0.69141-0.26562-0.48828-0.78516-0.80078-1.3555-0.80078l-11.055-0.003906v-18.508c0-2.9102-2.3594-5.2695-5.2695-5.2695l-25.441-0.003906c-2.9102 0-5.2695 2.3594-5.2695 5.2695 0 2.9141 2.3594 5.2734 5.2695 5.2734z" style="fill: rgb(63, 111, 59);"/>
  </g>
</svg>