<svg width="25" height="25" xmlns="http://www.w3.org/2000/svg"><path d="M50.605 64.441H30.437V50.629h11.051c.57 0 1.094-.309 1.355-.8.274-.5.231-1.09-.101-1.544L26.418 25.441a1.531 1.531 0 0 0-1.25-.644c-.504 0-.969.238-1.258.644L7.586 48.285a1.446 1.446 0 0 0-.101 1.543c.265.492.789.801 1.355.801h11.055v19.078a5.27 5.27 0 0 0 5.27 5.273h25.44a5.27 5.27 0 0 0 0-10.539zM48.805 37.668h20.168v13.238H57.922c-.57 0-1.094.309-1.355.8-.274.5-.231 1.087.101 1.544l16.324 22.844c.281.398.754.64 1.25.64a1.55 1.55 0 0 0 1.262-.64l16.32-22.84c.183-.258.277-.555.277-.852 0-.234-.058-.472-.176-.691a1.544 1.544 0 0 0-1.355-.801l-11.055-.004V32.398a5.27 5.27 0 0 0-5.27-5.27l-25.44-.003a5.27 5.27 0 0 0-5.27 5.27 5.27 5.27 0 0 0 5.27 5.273z" style="fill:#3f6f3b" transform="matrix(.21228 0 0 .21228 1.948 2.236)"/></svg>