<svg width="25" height="25" xmlns="http://www.w3.org/2000/svg"><path d="M25 12.5C25 19.404 19.404 25 12.5 25S0 19.404 0 12.5 5.596 0 12.5 0 25 5.596 25 12.5zm-7.847-5h-9.23c-.765 0-1.385.62-1.385 1.385v6.152c0 .765.62 1.385 1.385 1.385h7.963l1.864 1.865a.458.458 0 0 0 .503.1.463.463 0 0 0 .285-.426V8.885c0-.765-.62-1.385-1.385-1.385zm-7.846 3.077h2.923a.461.461 0 1 1 0 .923H9.307a.462.462 0 0 1 0-.923zm6.461 2.768H9.307a.461.461 0 0 1 0-.922h6.461a.461.461 0 1 1 0 .922z" style="fill:#7f629c"/></svg>