<?xml version="1.0" encoding="utf-8"?>
<svg width="25" height="25" viewBox="0 0 25 25" xmlns="http://www.w3.org/2000/svg">
  <path d="M 25 12.5 C 25 19.404 19.404 25 12.5 25 C 5.596 25 0 19.404 0 12.5 C 0 5.596 5.596 0 12.5 0 C 19.404 0 25 5.596 25 12.5 Z M 17.153 7.5 L 7.923 7.5 C 7.158 7.5 6.538 8.12 6.538 8.885 L 6.538 15.037 C 6.538 15.802 7.158 16.422 7.923 16.422 L 15.886 16.422 L 17.75 18.287 C 17.836 18.374 17.954 18.422 18.076 18.422 C 18.137 18.423 18.197 18.412 18.253 18.387 C 18.425 18.315 18.538 18.147 18.538 17.961 L 18.538 8.885 C 18.538 8.12 17.918 7.5 17.153 7.5 Z M 9.307 10.577 L 12.23 10.577 C 12.485 10.577 12.692 10.783 12.692 11.038 C 12.692 11.293 12.485 11.5 12.23 11.5 L 9.307 11.5 C 9.053 11.5 8.846 11.293 8.846 11.038 C 8.846 10.783 9.053 10.577 9.307 10.577 Z M 15.768 13.345 L 9.307 13.345 C 9.053 13.345 8.846 13.139 8.846 12.884 C 8.846 12.629 9.053 12.423 9.307 12.423 L 15.768 12.423 C 16.023 12.423 16.23 12.629 16.23 12.884 C 16.23 13.139 16.023 13.345 15.768 13.345 Z" style="fill: rgb(127, 98, 156);"/>
</svg>