<svg width="25" height="25" xmlns="http://www.w3.org/2000/svg"><path fill="#2CA9E1" d="M18.935 10.065c.006.132.008.262.008.399 0 4.065-3.093 8.754-8.752 8.754a8.687 8.687 0 0 1-4.717-1.383 6.167 6.167 0 0 0 4.555-1.276 3.08 3.08 0 0 1-2.875-2.136 2.99 2.99 0 0 0 1.39-.053 3.078 3.078 0 0 1-2.468-3.015v-.039c.427.238.906.37 1.395.385A3.073 3.073 0 0 1 6.104 9.14c0-.565.15-1.094.416-1.549a8.744 8.744 0 0 0 6.341 3.217c-.543-2.305 1.612-4.334 3.879-3.652a3.07 3.07 0 0 1 1.362.845 6.192 6.192 0 0 0 1.96-.748 3.087 3.087 0 0 1-1.356 1.701 6.037 6.037 0 0 0 1.768-.483 6.312 6.312 0 0 1-1.536 1.595l-.003-.001z"/></svg>