<svg xmlns="http://www.w3.org/2000/svg" width="25" height="25"><path fill="#2CA9E1" d="M12.5 0C5.597 0 0 5.597 0 12.5S5.597 25 12.5 25c6.295 0 11.5-4.653 12.37-10.707.084-.412.123-.838.116-1.277.01-.17.014-.342.014-.516C25 5.597 19.404 0 12.5 0zm5.754 10.232c.005.116.007.23.007.35 0 3.568-2.715 7.684-7.682 7.684a7.63 7.63 0 0 1-4.14-1.214 5.415 5.415 0 0 0 3.998-1.12 2.702 2.702 0 0 1-2.523-1.875 2.6 2.6 0 0 0 .51.05c.244 0 .482-.034.71-.096a2.703 2.703 0 0 1-2.167-2.647v-.034a2.69 2.69 0 0 0 1.225.338 2.698 2.698 0 0 1-1.2-2.248c0-.496.132-.96.365-1.36a7.673 7.673 0 0 0 5.566 2.824 2.7 2.7 0 0 1 4.6-2.464 5.417 5.417 0 0 0 1.72-.656 2.71 2.71 0 0 1-1.19 1.493 5.316 5.316 0 0 0 1.552-.424 5.535 5.535 0 0 1-1.348 1.4z"/></svg>