<svg width="25" height="25" xmlns="http://www.w3.org/2000/svg"><path d="M25.016 12.508c0 6.908-5.6 12.508-12.508 12.508C5.6 25.016 0 19.416 0 12.508 0 5.6 5.6 0 12.508 0c6.908 0 12.508 5.6 12.508 12.508zM7.369 18.172h10.27c1.69 0 2.753-1.851 1.915-3.3l-5.151-8.917c-.837-1.481-2.961-1.481-3.799 0l-5.15 8.917c-.821 1.465.225 3.3 1.915 3.3zm5.151-1.98a.824.824 0 0 1-.821-.821c0-.451.37-.821.821-.821.451 0 .821.37.805.837.016.435-.37.805-.805.805zm-.209-7.404a.817.817 0 0 1 .949.467c.049.129.081.257.081.402-.017.402-.049.821-.081 1.224-.032.627-.08 1.271-.112 1.899-.017.21-.017.386-.017.596a.607.607 0 0 1-.611.595.594.594 0 0 1-.612-.58c-.049-.982-.113-1.963-.161-2.945l-.049-.789a.855.855 0 0 1 .613-.869z" fill="#dc9909"/></svg>