<svg xmlns="http://www.w3.org/2000/svg" width="25" height="25" viewBox="0 0 25 25"><path fill="#F28D35" d="M12.5 0C5.596 0 0 5.596 0 12.5S5.597 25 12.5 25 25 19.404 25 12.5 19.403 0 12.5 0m-2.43 17.348a1.478 1.478 0 0 1-2.094 0c-.267-.268-.435-.635-.435-1.04s.168-.774.436-1.042c.27-.27.637-.434 1.047-.434s.776.164 1.047.434a1.46 1.46 0 0 1 0 2.082m2.69.447v-.004a5.19 5.19 0 0 0-1.53-3.69 5.183 5.183 0 0 0-3.686-1.532V10.44c2.028 0 3.862.824 5.193 2.156a7.348 7.348 0 0 1 2.16 5.2H12.76zm3.794 0c0-4.973-4.04-9.015-9.005-9.018V6.65c3.07 0 5.852 1.248 7.87 3.27a11.116 11.116 0 0 1 3.27 7.875h-2.136z"/></svg>