<svg xmlns="http://www.w3.org/2000/svg" width="25" height="25" viewBox="0 0 25 25"><path fill="#333" d="M12.5 0C5.597 0 0 5.598 0 12.5 0 19.403 5.597 25 12.5 25c6.293 0 11.5-4.652 12.37-10.705a5.93 5.93 0 0 0 .116-1.277A9.89 9.89 0 0 0 25 12.5C25 5.598 19.403 0 12.5 0zm8.894 13.425c.03.01.048.04.04.07a.06.06 0 0 1-.056.042c-.007 0-.012 0-.02-.002-1.516-.463-3.39-.527-4.016-.548-.483 1.06-1.42 1.53-2.89 1.75v.002c-.18.024-.37.048-.565.068.584.368.75.83.75 2.074 0 1.246-.016 1.413-.013 1.7.007.47.696.695.67.848-.026.15-.576.126-.833.037-.73-.256-.656-.863-.656-.863l-.024-1.665s.05-.898-.284-.898v2.728c0 .593.42.773.42.993 0 .376-.762-.036-.994-.272-.356-.355-.315-1.114-.308-1.712.008-.58-.005-1.847-.005-1.847l-.24.007s.098 2.767-.128 3.27c-.293.646-1.177.87-1.177.573 0-.197.216-.133.337-.58.104-.375.068-3.195.068-3.195s-.283.167-.283.697c0 .24-.007 1.62-.007 2.03 0 .52-.734.813-1.086.813-.18 0-.4-.008-.4-.104 0-.24.67-.38.67-.876 0-.43-.01-1.54-.01-1.54s-.338.057-.82.057c-1.217 0-1.604-.773-1.786-1.21a2.13 2.13 0 0 0-.875-1.043c-.203-.13-.25-.284-.016-.33 1.078-.2 1.354 1.224 2.072 1.45.513.162 1.172.092 1.5-.12.043-.437.358-.813.62-1.01L11 14.81c-1.8-.18-2.87-.814-3.428-1.826-1.914.046-3 .317-3.797.517-.056.016-.114.03-.168.043-.005.002-.01.002-.014.002a.058.058 0 0 1-.014-.114l.168-.04c.794-.2 1.873-.47 3.765-.52a3.147 3.147 0 0 1-.143-.324c-.735-.006-3 .1-3.778.29-.005.002-.01.002-.014.002a.06.06 0 0 1-.058-.044.06.06 0 0 1 .042-.072c.77-.19 2.98-.294 3.765-.292-.175-.52-.253-1.112-.253-1.776 0-1.177.366-1.62.86-2.25-.378-1.343.134-2.26.134-2.26s.792-.164 2.29.908c.81-.347 2.974-.377 4-.077.628-.417 1.777-1.004 2.24-.84.126.203.396.792.165 2.086.156.285.976.89.978 2.6-.01.63-.077 1.163-.198 1.612 1.95-.015 3.1.146 3.89.29.03.008.054.038.05.07a.06.06 0 0 1-.06.047c-.003 0-.008 0-.01-.002-.792-.146-1.94-.307-3.904-.288a3.6 3.6 0 0 1-.116.327c.67.02 2.506.09 4.002.548z"/></svg>