<?xml version="1.0" encoding="utf-8"?>
<svg width="25" height="25" viewBox="0 0 25 25" xmlns="http://www.w3.org/2000/svg">
  <path d="M 25 12.5 C 25 19.404 19.404 25 12.5 25 C 5.596 25 0 19.404 0 12.5 C 0 5.596 5.596 0 12.5 0 C 19.404 0 25 5.596 25 12.5 Z M 16.566 7.002 C 13.704 6.929 12.751 9.351 12.751 9.351 C 12.751 9.351 11.796 6.929 8.936 7.002 C 6.073 7.076 4.386 10.157 5.706 12.872 C 7.028 15.588 12.752 19.183 12.752 19.183 C 12.752 19.183 18.473 15.587 19.794 12.871 C 21.114 10.156 19.427 7.077 16.566 7.002 Z" style="fill: rgb(221, 0, 0);"/>
</svg>