<?xml version="1.0" encoding="utf-8"?>
<svg width="25" height="25" viewBox="0 0 25 25" xmlns="http://www.w3.org/2000/svg">
  <path d="M 25 12.5 C 25 19.404 19.404 25 12.5 25 C 5.596 25 0 19.404 0 12.5 C 0 5.596 5.596 0 12.5 0 C 19.404 0 25 5.596 25 12.5 Z M 19.533 17.099 L 15.626 13.687 C 16.604 12.227 16.79 10.376 16.119 8.752 C 15.449 7.129 14.013 5.946 12.29 5.602 C 10.568 5.258 8.786 5.796 7.543 7.037 C 6.3 8.278 5.759 10.057 6.101 11.78 C 6.442 13.504 7.623 14.943 9.245 15.615 C 10.867 16.289 12.719 16.106 14.179 15.13 L 17.592 19.038 C 17.634 19.084 17.678 19.127 17.724 19.168 C 18.296 19.667 19.163 19.607 19.66 19.037 C 20.16 18.465 20.101 17.598 19.532 17.099 Z M 8.9 13.117 C 8.167 12.384 7.817 11.352 7.952 10.324 C 8.086 9.299 8.692 8.392 9.589 7.875 C 10.486 7.357 11.574 7.286 12.53 7.683 C 13.487 8.078 14.205 8.896 14.473 9.898 C 14.742 10.899 14.528 11.966 13.899 12.789 C 13.267 13.611 12.291 14.092 11.256 14.092 C 10.371 14.092 9.524 13.741 8.9 13.117 Z" style="fill: rgb(63, 111, 59);"/>
</svg>